<svg height="72" width="72" xmlns="http://www.w3.org/2000/svg" xmlns:xlink="http://www.w3.org/1999/xlink"><clipPath id="a"><path d="m28.6 26.6h-5.8l-2.9 4.9 2.9 5h5.8l2.9-5z"/></clipPath><g stroke="#38414f" stroke-miterlimit="10"><g fill="#fff"><path d="m30.4 7h31.6v48.4h-31.6z"/><path d="m54.1 26.6v-9.3l-8-4.6-8 4.6v9.3l8 4.6z"/><path d="m49 17h-5.8l-2.9 4.9 2.9 5h5.8l2.9-5z"/><path d="m43.5 20.4v3.1l2.6 1.5 2.6-1.5v-3.1l-2.6-1.5z"/></g><path d="m58 36.4c-.4.4-.6.7-1.1.7s-.7-.2-1.1-.7c-.4-.4-.8-.9-1.7-.9s-1.3.5-1.7.9-.6.7-1.1.7-.7-.2-1.1-.7c-.4-.4-.8-.9-1.7-.9s-1.3.5-1.7.9-.6.7-1.1.7-.7-.2-1.1-.7c-.4-.4-.8-.9-1.7-.9s-1.3.5-1.7.9-.6.7-1.1.7-.7-.2-1.1-.7c-.4-.4-.8-.9-1.7-.9s-1.3.5-1.7.9-.6.7-1.1.7-.7-.2-1.1-.7l.2.6c.4.4.8.9 1.7.9s1.3-.5 1.7-.9.6-.7 1.1-.7.7.2 1.1.7c.4.4.8.9 1.7.9s1.3-.5 1.7-.9.6-.7 1.1-.7.7.2 1.1.7c.4.4.8.9 1.7.9s1.3-.5 1.7-.9.6-.7 1.1-.7.7.2 1.1.7c.4.4.8.9 1.7.9s1.3-.5 1.7-.9.6-.7 1.1-.7.7.2 1.1.7c.4.4.8.9 1.7.9s1.3-.5 1.7-.9zm0 4.4c-.4.4-.6.7-1.1.7s-.7-.2-1.1-.7c-.4-.4-.8-.9-1.7-.9s-1.3.5-1.7.9-.6.7-1.1.7-.7-.2-1.1-.7c-.4-.4-.8-.9-1.7-.9s-1.3.5-1.7.9-.6.7-1.1.7-.7-.2-1.1-.7c-.4-.4-.8-.9-1.7-.9s-1.3.5-1.7.9-.6.7-1.1.7-.7-.2-1.1-.7c-.4-.4-.8-.9-1.7-.9s-1.3.5-1.7.9-.6.7-1.1.7-.7-.2-1.1-.7l-.6.5c.4.4.8.9 1.7.9s1.3-.5 1.7-.9.6-.7 1.1-.7.7.2 1.1.7c.4.4.8.9 1.7.9s1.3-.5 1.7-.9.6-.7 1.1-.7.7.2 1.1.7c.4.4.8.9 1.7.9s1.3-.5 1.7-.9.6-.7 1.1-.7.7.2 1.1.7c.4.4.8.9 1.7.9s1.3-.5 1.7-.9.6-.7 1.1-.7.7.2 1.1.7c.4.4.8.9 1.7.9s1.3-.5 1.7-.9zm.2 4.3c-.4.4-.6.7-1.1.7s-.7-.2-1.1-.7c-.4-.4-.8-.9-1.7-.9s-1.3.5-1.7.9-.6.7-1.1.7-.7-.2-1.1-.7c-.4-.4-.8-.9-1.7-.9s-1.3.5-1.7.9-.6.7-1.1.7-.7-.2-1.1-.7c-.4-.4-.8-.9-1.7-.9s-1.3.5-1.7.9-.6.7-1.1.7-.7-.2-1.1-.7c-.4-.4-.8-.9-1.7-.9s-1.3.5-1.7.9-.6.7-1.1.7-.7-.2-1.1-.7l-.6.5c.4.4.8.9 1.7.9s1.3-.5 1.7-.9.6-.7 1.1-.7.7.2 1.1.7c.4.4.8.9 1.7.9s1.3-.5 1.7-.9.6-.7 1.1-.7.7.2 1.1.7c.4.4.8.9 1.7.9s1.3-.5 1.7-.9.6-.7 1.1-.7.7.2 1.1.7c.4.4.8.9 1.7.9s1.3-.5 1.7-.9.6-.7 1.1-.7.7.2 1.1.7c.4.4.8.9 1.7.9s1.3-.5 1.7-.9z" fill="#38414f" stroke-width=".1417"/><path d="m20.2 11.8h31.6v48.4h-31.6z" fill="#fff"/><path d="m43.9 31.4v-9.3l-8-4.6-8 4.6v9.3l8 4.6z" fill="#fff"/><path d="m38.8 21.8h-5.8l-2.9 4.9 2.9 5h5.8l2.9-5z" fill="#fff"/><path d="m33.3 25.2v3.1l2.6 1.5 2.6-1.5v-3.1l-2.6-1.5z" fill="#fff"/><path d="m47.8 41.2c-.4.4-.6.7-1.1.7s-.7-.2-1.1-.7c-.4-.4-.8-.9-1.7-.9s-1.3.5-1.7.9-.6.7-1.1.7-.7-.2-1.1-.7c-.4-.4-.8-.9-1.7-.9s-1.3.5-1.7.9-.6.7-1.1.7-.7-.2-1.1-.7c-.4-.4-.8-.9-1.7-.9s-1.3.5-1.7.9-.6.7-1.1.7-.7-.2-1.1-.7c-.4-.4-.8-.9-1.7-.9s-1.3.5-1.7.9-.6.7-1.1.7-.7-.2-1.1-.7l-.6.5c.4.4.8.9 1.7.9s1.3-.5 1.7-.9.6-.7 1.1-.7.7.2 1.1.7c.4.4.8.9 1.7.9s1.3-.5 1.7-.9.6-.7 1.1-.7.7.2 1.1.7c.4.4.8.9 1.7.9s1.3-.5 1.7-.9.6-.7 1.1-.7.7.2 1.1.7c.4.4.8.9 1.7.9s1.3-.5 1.7-.9.6-.7 1.1-.7.7.2 1.1.7c.4.4.8.9 1.7.9s1.3-.5 1.7-.9zm0 4.4c-.4.4-.6.7-1.1.7s-.7-.2-1.1-.7c-.4-.4-.8-.9-1.7-.9s-1.3.5-1.7.9-.6.7-1.1.7-.7-.2-1.1-.7c-.4-.4-.8-.9-1.7-.9s-1.3.5-1.7.9-.6.7-1.1.7-.7-.2-1.1-.7c-.4-.4-.8-.9-1.7-.9s-1.3.5-1.7.9-.6.7-1.1.7-.7-.2-1.1-.7c-.4-.4-.8-.9-1.7-.9s-1.3.5-1.7.9-.6.7-1.1.7-.7-.2-1.1-.7l-.6.5c.4.4.8.9 1.7.9s1.3-.5 1.7-.9.6-.7 1.1-.7.7.2 1.1.7c.4.4.8.9 1.7.9s1.3-.5 1.7-.9.6-.7 1.1-.7.7.2 1.1.7c.4.4.8.9 1.7.9s1.3-.5 1.7-.9.6-.7 1.1-.7.7.2 1.1.7c.4.4.8.9 1.7.9s1.3-.5 1.7-.9.6-.7 1.1-.7.7.2 1.1.7c.4.4.8.9 1.7.9s1.3-.5 1.7-.9zm.2 4.3c-.4.4-.6.7-1.1.7s-.7-.2-1.1-.7c-.4-.4-.8-.9-1.7-.9s-1.3.5-1.7.9-.6.7-1.1.7-.7-.2-1.1-.7c-.4-.4-.8-.9-1.7-.9s-1.3.5-1.7.9-.6.7-1.1.7-.7-.2-1.1-.7c-.4-.4-.8-.9-1.7-.9s-1.3.5-1.7.9-.6.7-1.1.7-.7-.2-1.1-.7c-.4-.4-.8-.9-1.7-.9s-1.3.5-1.7.9-.6.7-1.1.7-.7-.2-1.1-.7l-.6.5c.4.4.8.9 1.7.9s1.3-.5 1.7-.9.6-.7 1.1-.7.7.2 1.1.7c.4.4.8.9 1.7.9s1.3-.5 1.7-.9.6-.7 1.1-.7.7.2 1.1.7c.4.4.8.9 1.7.9s1.3-.5 1.7-.9.6-.7 1.1-.7.7.2 1.1.7c.4.4.8.9 1.7.9s1.3-.5 1.7-.9.6-.7 1.1-.7.7.2 1.1.7c.4.4.8.9 1.7.9s1.3-.5 1.7-.9z" fill="#38414f" stroke-width=".1417"/><path d="m10 16.6h31.6v48.4h-31.6z" fill="#fff"/><path d="m33.8 36.2v-9.3l-8.1-4.6-8 4.6v9.3l8 4.6z" fill="#fff"/><path d="m28.6 26.6h-5.8l-2.9 4.9 2.9 5h5.8l2.9-5z" fill="#fff"/><path d="m37.7 46c-.4.4-.6.7-1.1.7s-.7-.2-1.1-.7c-.4-.4-.8-.9-1.7-.9s-1.3.5-1.7.9-.6.7-1.1.7-.7-.2-1.1-.7c-.4-.4-.8-.9-1.7-.9s-1.3.5-1.7.9-.6.7-1.1.7-.7-.2-1.1-.7c-.4-.4-.8-.9-1.7-.9s-1.3.5-1.7.9-.6.7-1.1.7-.7-.2-1.1-.7c-.4-.4-.8-.9-1.7-.9s-1.3.5-1.7.9-.6.7-1.1.7-.7-.2-1.1-.7l-.6.5c.4.4.8.9 1.7.9s1.3-.5 1.7-.9.6-.7 1.1-.7.7.2 1.1.7c.4.4.8.9 1.7.9s1.3-.5 1.7-.9.6-.7 1.1-.7.7.2 1.1.7c.4.4.8.9 1.7.9s1.3-.5 1.7-.9.6-.7 1.1-.7.7.2 1.1.7c.4.4.8.9 1.7.9s1.3-.5 1.7-.9.6-.7 1.1-.7.7.2 1.1.7c.4.4.8.9 1.7.9s1.3-.5 1.7-.9zm0 4.4c-.4.4-.6.7-1.1.7s-.7-.2-1.1-.7c-.4-.4-.8-.9-1.7-.9s-1.3.5-1.7.9-.6.7-1.1.7-.7-.2-1.1-.7c-.4-.4-.8-.9-1.7-.9s-1.3.5-1.7.9-.6.7-1.1.7-.7-.2-1.1-.7c-.4-.4-.8-.9-1.7-.9s-1.3.5-1.7.9c.1.4-.1.6-.6.6s-.7-.2-1.1-.7c-.4-.4-.8-.9-1.7-.9s-1.3.5-1.7.9-.6.7-1.1.7-.7-.2-1.1-.7l-.6.5c.4.4.8.9 1.7.9s1.3-.5 1.7-.9.6-.7 1.1-.7.7.2 1.1.7c.4.4.8.9 1.7.9s1.3-.5 1.7-.9.6-.7 1.1-.7.7.2 1.1.7c.4.4.8.9 1.7.9s1.3-.5 1.7-.9.6-.7 1.1-.7.7.2 1.1.7c.4.4.8.9 1.7.9s1.3-.5 1.7-.9.6-.7 1.1-.7.7.2 1.1.7c.4.4.8.9 1.7.9s1.3-.5 1.7-.9zm.1 4.3c-.4.4-.6.7-1.1.7s-.7-.2-1.1-.7c-.4-.4-.8-.9-1.7-.9s-1.3.5-1.7.9-.6.7-1.1.7-.7-.2-1.1-.7c-.4-.4-.8-.9-1.7-.9s-1.3.5-1.7.9-.6.7-1.1.7-.7-.2-1.1-.7c-.4-.4-.8-.9-1.7-.9s-1.3.5-1.7.9-.6.7-1.1.7-.7-.2-1.1-.7c-.4-.4-.8-.9-1.7-.9s-1.3.5-1.7.9-.6.7-1.1.7-.7-.2-1.1-.7l-.6.5c.4.4.8.9 1.7.9s1.3-.5 1.7-.9.6-.7 1.1-.7.7.2 1.1.7c.4.4.8.9 1.7.9s1.3-.5 1.7-.9.6-.7 1.1-.7.7.2 1.1.7c.4.4.8.9 1.7.9s1.3-.5 1.7-.9.6-.7 1.1-.7.7.2 1.1.7c.4.4.8.9 1.7.9s1.3-.5 1.7-.9.6-.7 1.1-.7.7.2 1.1.7c.4.4.8.9 1.7.9s1.3-.5 1.7-.9z" fill="#38414f" stroke-width=".1417"/></g><path d="m23.2 30v3.1l2.6 1.5 2.6-1.5v-3.1l-2.6-1.5z" fill="none"/><g clip-path="url(#a)"><path d="m20.9 8.9-20.6 20.6m21.9-19.2-20.6 20.6m22-19.3-20.7 20.6m22-19.3-20.6 20.6m21.9-19.2-20.6 20.6m22-19.3-20.6 20.6m21.9-19.2-20.6 20.6m22-19.3-20.7 20.6m22-19.3-20.6 20.6m21.9-19.2-20.6 20.6m22-19.3-20.6 20.6m21.9-19.2-20.6 20.6m22-19.3-20.6 20.6m21.9-19.3-20.6 20.6m23.3-17.9-20.6 20.6m19.2-21.9-20.6 20.6" fill="none" stroke="#38414f" stroke-miterlimit="10" stroke-width=".63"/></g></svg>