<svg width="66" height="66" viewBox="0 0 66 66" fill="none" xmlns="http://www.w3.org/2000/svg">
<path d="M34.0391 50.2734C34.0391 50.8474 33.5739 51.3125 33 51.3125C32.4261 51.3125 31.9609 50.8474 31.9609 50.2734C31.9609 49.6995 32.4261 49.2344 33 49.2344C33.5739 49.2344 34.0391 49.6995 34.0391 50.2734Z" fill="#636363" stroke="white" stroke-width="0.5"/>
<path d="M54.0117 31.1875C58.1386 31.1875 61.4961 34.545 61.4961 38.6719C61.4961 42.7988 58.1386 46.1562 54.0117 46.1562C49.8848 46.1562 46.5273 42.7988 46.5273 38.6719C46.5273 34.545 49.8848 31.1875 54.0117 31.1875ZM48.6055 38.6719C48.6055 41.6529 51.0307 44.0781 54.0117 44.0781C56.9928 44.0781 59.418 41.6529 59.418 38.6719C59.418 35.6908 56.9928 33.2656 54.0117 33.2656C51.0307 33.2656 48.6055 35.6908 48.6055 38.6719Z" fill="#636363" stroke="white" stroke-width="0.5"/>
<path d="M45.1186 50.0925L45.2912 50.3192L45.4936 50.1187C47.6528 47.9792 50.8286 46.6562 54.0117 46.6562C60.3796 46.6562 65.75 51.8648 65.75 58.0078V60.5859C65.75 61.1599 65.2849 61.625 64.7109 61.625H1.28906C0.715128 61.625 0.25 61.1599 0.25 60.5859V58.0078C0.25 51.8648 5.62038 46.6562 11.9883 46.6562C15.1719 46.6562 18.3472 47.9797 20.507 50.1187L20.7093 50.3191L20.8818 50.0925C23.8456 46.1993 28.3505 44.0781 33 44.0781C37.8551 44.0781 42.2606 46.3366 45.1186 50.0925ZM19.4829 52.3018L19.5611 52.1508L19.4494 52.0226C17.6858 49.9994 14.8477 48.7344 11.9883 48.7344C6.75934 48.7344 2.32812 52.9686 2.32812 58.0078V59.2969V59.5469H2.57812H17.5312H17.7812V59.2969C17.7812 56.8545 18.3683 54.4547 19.4829 52.3018ZM45.8906 59.5469H46.1406V59.2969C46.1406 52.0894 40.3123 46.1562 33 46.1562C25.8072 46.1562 19.8594 51.9926 19.8594 59.2969V59.5469H20.1094H45.8906ZM63.4219 59.5469H63.6719V59.2969V58.0078C63.6719 52.9686 59.2407 48.7344 54.0117 48.7344C51.1523 48.7344 48.3142 49.9994 46.5506 52.0226L46.4389 52.1508L46.5171 52.3018C47.6317 54.4547 48.2188 56.8545 48.2188 59.2969V59.5469H48.4688H63.4219Z" fill="#636363" stroke="white" stroke-width="0.5"/>
<path d="M11.9883 31.1875C16.1152 31.1875 19.4727 34.545 19.4727 38.6719C19.4727 42.7988 16.1152 46.1562 11.9883 46.1562C7.86137 46.1562 4.50391 42.7988 4.50391 38.6719C4.50391 34.545 7.86137 31.1875 11.9883 31.1875ZM6.58203 38.6719C6.58203 41.6529 9.00722 44.0781 11.9883 44.0781C14.9693 44.0781 17.3945 41.6529 17.3945 38.6719C17.3945 35.6908 14.9693 33.2656 11.9883 33.2656C9.00722 33.2656 6.58203 35.6908 6.58203 38.6719Z" fill="#636363" stroke="white" stroke-width="0.5"/>
<path d="M33 23.4531C38.5484 23.4531 43.0625 27.9672 43.0625 33.5156C43.0625 39.064 38.5484 43.5781 33 43.5781C27.4516 43.5781 22.9375 39.064 22.9375 33.5156C22.9375 27.9672 27.4516 23.4531 33 23.4531ZM25.0156 33.5156C25.0156 37.9187 28.5969 41.5 33 41.5C37.4031 41.5 40.9844 37.9187 40.9844 33.5156C40.9844 29.1126 37.4031 25.5312 33 25.5312C28.5969 25.5312 25.0156 29.1126 25.0156 33.5156Z" fill="#636363" stroke="white" stroke-width="0.5"/>
<path d="M42.125 6.86745L42.125 6.86745L36.5649 6.06027L36.4342 6.04131L36.3762 5.92271L33.8867 0.832927L33.8866 0.832735C33.7125 0.47603 33.3506 0.25 32.9537 0.25C32.5568 0.25 32.1947 0.475997 32.0201 0.832397L42.125 6.86745ZM42.125 6.86745C42.5168 6.92429 42.8418 7.19825 42.9639 7.57442C43.0861 7.95075 42.9842 8.36348 42.701 8.63943L42.7009 8.63947L38.6751 12.5636L38.581 12.6553L38.6032 12.7849L39.5544 18.3258C39.6214 18.7158 39.4611 19.1095 39.1413 19.3421C38.8208 19.5748 38.3967 19.6055 38.0472 19.4214L38.047 19.4213L33.07 16.8054L32.9536 16.7443L32.8373 16.8054L27.8624 19.4213C27.8624 19.4213 27.8624 19.4213 27.8623 19.4213C27.5099 19.6064 27.0863 19.5735 26.7682 19.3422L26.7679 19.342C26.4478 19.1099 26.2875 18.7159 26.3544 18.3264L26.3544 18.3263L27.3046 12.7848L27.3268 12.6553L27.2327 12.5635L23.2064 8.63946L23.2064 8.63943C22.9231 8.36348 22.8212 7.95075 22.9434 7.57442C23.0656 7.1981 23.3907 6.92376 23.7823 6.86695L29.3424 6.06028L29.4731 6.04132L29.5311 5.92268L32.02 0.832538L42.125 6.86745ZM36.4398 12.4682L36.4398 12.468C36.3818 12.1314 36.4937 11.7872 36.7385 11.5485C36.7385 11.5485 36.7386 11.5484 36.7386 11.5484L39.3796 8.97489L39.7425 8.62124L39.241 8.54843L35.5924 8.01871L35.5922 8.01869C35.2527 7.9696 34.9593 7.75581 34.8082 7.44683L34.8082 7.44681L33.1783 4.11337L32.9537 3.65414L32.7291 4.11335L31.0986 7.44678L31.0985 7.44696C30.948 7.75538 30.6546 7.96959 30.3146 8.01868L30.3144 8.01871L26.6663 8.54843L26.1649 8.62124L26.5277 8.97487L29.1682 11.5484C29.4131 11.7872 29.5251 12.131 29.4675 12.4683L28.8441 16.1033L28.7585 16.6026L29.2069 16.3668L32.4697 14.6508C32.7726 14.4916 33.1343 14.4916 33.4371 14.6508L36.701 16.3668L37.1494 16.6026L37.0637 16.1032L36.4398 12.4682Z" fill="#636363" stroke="white" stroke-width="0.5"/>
<path d="M61.3925 16.5289L61.3924 16.5289L57.6254 15.9815L57.4953 15.9626L57.4372 15.8447L55.7528 12.4307L55.7528 12.4307C55.5779 12.076 55.2172 11.8516 54.8214 11.8516H54.8214H54.8214H54.8214H54.8214H54.8214H54.8214H54.8214H54.8214H54.8214H54.8214H54.8214H54.8214H54.8213H54.8213H54.8213H54.8213H54.8213H54.8213H54.8213H54.8213H54.8213H54.8213H54.8213H54.8213H54.8213H54.8213H54.8213H54.8213H54.8213H54.8213H54.8213H54.8213H54.8213H54.8213H54.8213H54.8213H54.8213H54.8212H54.8212H54.8212H54.8212H54.8212H54.8212H54.8212H54.8212H54.8212H54.8212H54.8212H54.8212H54.8212H54.8212H54.8212H54.8212H54.8212H54.8212H54.8212H54.8212H54.8212H54.8212H54.8211H54.8211H54.8211H54.8211H54.8211H54.8211H54.8211H54.8211H54.8211H54.8211H54.8211H54.8211H54.8211H54.8211H54.8211H54.8211H54.8211H54.8211H54.8211H54.8211H54.8211H54.8211H54.8211H54.821H54.821H54.821H54.821H54.821H54.821H54.821H54.821H54.821H54.821H54.821H54.821H54.821H54.821H54.821H54.821H54.821H54.821H54.821H54.821H54.8209H54.8209H54.8209H54.8209H54.8209H54.8209H54.8209H54.8209H54.8209H54.8209C54.4256 11.8516 54.0644 12.076 53.8895 12.4307L53.8894 12.4308L52.2041 15.8448L52.1459 15.9626L52.0159 15.9815L48.2484 16.5289L48.2484 16.5289C47.8571 16.5857 47.5321 16.8596 47.4099 17.2358L47.4098 17.2361C47.2873 17.6123 47.3891 18.0249 47.6724 18.3008L47.6725 18.3009L50.3981 20.9591L50.4922 21.0509L50.47 21.1804L49.8265 24.9316L61.3925 16.5289ZM61.3925 16.5289C61.7842 16.5857 62.1092 16.8597 62.2314 17.2358C62.3537 17.6124 62.252 18.025 61.9689 18.3008L61.9688 18.3009L59.2427 20.9591L59.1486 21.0509L59.1708 21.1804L59.8143 24.9316C59.8809 25.3215 59.7208 25.7156 59.4013 25.9475L59.4011 25.9476C59.0813 26.1802 58.6566 26.211 58.3069 26.0272L54.9372 24.2563L54.8209 24.1952L54.7046 24.2563L51.3339 26.0272L51.3339 26.0272C50.9842 26.211 50.56 26.1802 50.2402 25.9476L50.2401 25.9476M61.3925 16.5289L50.2401 25.9476M50.2401 25.9476C49.9199 25.715 49.7599 25.3215 49.8265 24.9317L50.2401 25.9476ZM57.307 19.9446L57.3072 19.9444L58.6482 18.6362L59.0107 18.2826L58.5095 18.2098L56.6559 17.941C56.3175 17.8919 56.0248 17.6792 55.8734 17.3723L55.0451 15.6935L54.8209 15.2392L54.5967 15.6935L53.7679 17.3727C53.6165 17.6792 53.3238 17.8919 52.9854 17.941L51.1318 18.2098L50.6305 18.2826L50.9932 18.6362L52.3346 19.9444L52.3346 19.9444C52.5793 20.1831 52.691 20.5269 52.6333 20.8638L52.3166 22.7092L52.231 23.2082L52.6793 22.9728L54.3379 22.1017L54.3381 22.1016C54.6403 21.9425 55.0019 21.9425 55.3048 22.1016L55.3048 22.1016L56.962 22.9723L57.4102 23.2077L57.3247 22.7087L57.0085 20.8637L57.0084 20.8635C56.9504 20.5268 57.0619 20.1832 57.307 19.9446Z" fill="#636363" stroke="white" stroke-width="0.5"/>
<path d="M3.34403 17.1586C3.19196 17.6254 3.31835 18.1375 3.66982 18.4799L6.39548 21.1381L5.75246 24.8895L3.34403 17.1586ZM3.34403 17.1586C3.49559 16.6918 3.89893 16.352 4.38434 16.2815L3.34403 17.1586ZM13.4786 19.9444L13.4786 19.9444C13.2339 20.183 13.1222 20.5268 13.1798 20.8637L13.4786 19.9444ZM13.4786 19.9444L14.8196 18.6362L15.1821 18.2826L14.6809 18.2098L12.8273 17.941C12.4889 17.8919 12.1962 17.6792 12.0448 17.3723L11.2165 15.6935L10.9923 15.2392L10.7681 15.6935L9.93933 17.3727C9.78791 17.6792 9.4952 17.8919 9.15727 17.941C9.15725 17.941 9.15723 17.941 9.15721 17.941L7.30323 18.2098L6.8019 18.2826L7.16457 18.6362L8.506 19.9444L8.50601 19.9444C8.75089 20.1832 8.86276 20.527 8.80478 20.8635L8.80475 20.8637L8.48803 22.7092L8.40239 23.2081L8.85064 22.9728L10.5098 22.1017L10.51 22.1016C10.8123 21.9425 11.1738 21.9425 11.4761 22.1016L11.4763 22.1017L13.1339 22.9723L13.5822 23.2077L13.4966 22.7086L13.1799 20.8638L13.4786 19.9444ZM17.5643 16.5289L17.5644 16.5289C17.9561 16.5857 18.2811 16.8597 18.4033 17.2358C18.5256 17.6124 18.4239 18.025 18.1408 18.3008L18.1408 18.3009L15.4146 20.9591L15.3205 21.0509L15.3427 21.1804L15.9862 24.9317L15.9863 24.9318C16.0532 25.3214 15.8929 25.7155 15.5732 25.9475L15.573 25.9476C15.2547 26.1791 14.831 26.2123 14.4788 26.0272C14.4788 26.0272 14.4788 26.0272 14.4788 26.0272L11.1091 24.2563L10.9928 24.1952L10.8765 24.2563L7.50641 26.0272C7.15607 26.2111 6.7319 26.1802 6.41209 25.9476C6.09211 25.715 5.93191 25.3213 5.99885 24.9318L5.99886 24.9317L6.64189 21.1803L6.66408 21.0509L6.57003 20.9591L3.84436 18.3009L3.84427 18.3008C3.56101 18.0249 3.45917 17.6123 3.58173 17.2361L3.58181 17.2358C3.70396 16.8596 4.02902 16.5857 4.42027 16.5289L4.42028 16.5289L8.18777 15.9815L8.31783 15.9626L8.376 15.8448L10.0613 12.4308L10.0614 12.4307C10.2363 12.0761 10.5974 11.8516 10.9933 11.8516C11.3891 11.8516 11.7498 12.076 11.9247 12.4307L11.9247 12.4307L13.6091 15.8447L13.6672 15.9626L13.7973 15.9815L17.5643 16.5289Z" fill="#636363" stroke="white" stroke-width="0.5"/>
<path d="M38.5115 50.8812L38.5114 50.8812C38.0317 50.5658 37.3876 50.6993 37.0727 51.179L37.0725 51.1793C36.7573 51.6583 36.8906 52.3024 37.3705 52.6179L38.5115 50.8812ZM38.5115 50.8812C40.0595 51.898 41.2973 53.3166 42.0902 54.9832M38.5115 50.8812L40.2139 55.8761M40.2139 55.8761L40.2139 55.8763C40.4599 56.3937 41.0791 56.6148 41.5982 56.3676L41.5984 56.3676C42.1166 56.1213 42.3366 55.5011 42.0902 54.9832M40.2139 55.8761C39.5838 54.5527 38.6005 53.426 37.3706 52.618L40.2139 55.8761ZM42.0902 54.9832L42.316 54.8758L42.0902 54.9832Z" fill="#636363" stroke="white" stroke-width="0.5"/>
</svg>
