<svg xmlns="http://www.w3.org/2000/svg" width="72" height="72" viewBox="0 0 96 96"><title>home_page_OPT</title><path d="M54.62,12.22V6.47H41.28v5.75H54.62M69.91,24a.13.13,0,0,0-.12-.06A35.1,35.1,0,0,0,48,16.72,35.1,35.1,0,0,0,26,24L22,20l-7.34,7.34,4,4.09a34.9,34.9,0,0,0-7.09,21.69A35.35,35.35,0,0,0,22.25,78.87,35.13,35.13,0,0,0,48,89.5,35.12,35.12,0,0,0,73.75,78.91,35.38,35.38,0,0,0,84.41,53.12,37.83,37.83,0,0,0,83,42.56a34.15,34.15,0,0,0-5.69-11.16l2.53-2.56L72.47,21.5,70,24Z" fill="#fff"/><path d="M68.63,32.46A28.46,28.46,0,0,0,48,23.94a28.18,28.18,0,0,0-20.6,8.53,28.22,28.22,0,0,0-8.59,20.66,28.33,28.33,0,0,0,8.59,20.69A28.24,28.24,0,0,0,48,82.31,29.06,29.06,0,0,0,77.16,53.12,28.33,28.33,0,0,0,68.63,32.46Zm-.88,40.47A27.31,27.31,0,0,1,48,81.06a27,27,0,0,1-19.71-8.13A27.12,27.12,0,0,1,20,53.12a27,27,0,0,1,8.22-19.78A27,27,0,0,1,48,25.19a27.25,27.25,0,0,1,19.78,8.16,27.11,27.11,0,0,1,8.16,19.78A27.22,27.22,0,0,1,67.75,72.93Z" fill="#37414f"/><path d="M78.13,31.47l2.56-2.63-8.23-8.23-2.55,2.58a35.57,35.57,0,0,0-21.33-7.12V12.84h6.66v-7H40.66v7h6.69v3.23A35.55,35.55,0,0,0,26.07,23.2L22,19.08l-8.23,8.23,4.1,4.18A35.62,35.62,0,0,0,11,53.09,35.84,35.84,0,0,0,21.81,79.29,35.84,35.84,0,0,0,48,90.13,35.84,35.84,0,0,0,74.19,79.29,35.84,35.84,0,0,0,85,53.09,35.75,35.75,0,0,0,78.13,31.47ZM41.91,7.09H54v4.5H41.91ZM72.47,22.39l6.46,6.46-1.57,1.61a41.34,41.34,0,0,0-3.17-3.56A40.67,40.67,0,0,0,70.92,24ZM22,20.86,25.07,24a40.69,40.69,0,0,0-3.27,2.93,39.43,39.43,0,0,0-3.17,3.58l-3.1-3.17ZM73.31,78.4A34.63,34.63,0,0,1,48,88.88,34.63,34.63,0,0,1,22.69,78.4,34.63,34.63,0,0,1,12.22,53.09a34.37,34.37,0,0,1,7-21.28,37.85,37.85,0,0,1,3.5-4,39.1,39.1,0,0,1,3.69-3.26A34.42,34.42,0,0,1,48,17.31a34.42,34.42,0,0,1,21.62,7.21,39.07,39.07,0,0,1,3.69,3.26,39.61,39.61,0,0,1,3.51,4,34.5,34.5,0,0,1,7,21.31A34.63,34.63,0,0,1,73.31,78.4Z" fill="#37414f"/><rect x="38.84" y="31.9" width="1.25" height="25.36" transform="translate(-19.96 41.02) rotate(-45.05)" fill="#37414f"/><path d="M48.59,77.81H47.34V74.59h1.25ZM31,71l-.9-.86,2.24-2.34.9.86ZM72.69,53.72H69.44V52.47h3.25Zm-46.19,0H23.25V52.47H26.5ZM63.63,38.35l-.89-.87L65,35.18l.89.87Zm-15-6.73H47.34V28.38h1.25Z" fill="#37414f"/><rect x="63.69" y="67.79" width="1.25" height="3.24" transform="translate(-30.14 63.71) rotate(-43.73)" fill="#2b3237"/><path d="M86.76,26.6V25.35l4.47,0v1.25Zm-2.69-7.93-.89-.88,3.07-3.11.89.88ZM76.53,15H75.28V10.59h1.25Z" fill="#37414f"/></svg>