<svg height="72" width="72" xmlns="http://www.w3.org/2000/svg"><g fill="#fff" stroke="#38414f" stroke-miterlimit="10"><path d="m26.1 57.8h-2.8v4.9l1.4-1.4 1.4 1.3zm29.5 3.6v-1.3h-28.5v1.3zm0-2.3v-1.3h-28.5v1.3zm0-2.3v-1.3h-39.1v5.8h5.9v-1.3h-4.5v-1h4.5v-1.3h-4.5v-1zm0-48.2h-39.1v46h39.1zm-32.3 17.1v-10.8h25.4v10.8zm1-9.8v8.8h23.5v-8.8z"/><path d="m15.9 8h40.2v53.8h-40.2z"/><path d="m23.9 15.4h24.4v9.8h-24.4zm-7.6 39.7h39.6m-38.1 2.2h38.3m-38.3 2.3h38.3m-29.5 4.4-1.9-2.1-1.9 2.1v-6.6h3.8z"/></g></svg>