<svg width="66" height="66" viewBox="0 0 66 66" fill="none" xmlns="http://www.w3.org/2000/svg">
<path d="M9.05005 50.05C9.05005 46.5482 11.8982 43.7 15.4 43.7C18.9018 43.7 21.75 46.5482 21.75 50.05C21.75 53.5519 18.9019 56.4 15.4 56.4C11.8982 56.4 9.05005 53.5519 9.05005 50.05ZM10.7501 50.05C10.7501 52.6146 12.8353 54.7 15.4 54.7C17.9647 54.7 20.05 52.6146 20.05 50.05C20.05 47.4854 17.9647 45.4001 15.4 45.4001C12.8355 45.4001 10.7501 47.4853 10.7501 50.05Z" fill="#636363" stroke="white" stroke-width="0.5"/>
<path d="M46.45 50.05C46.45 46.5482 49.2982 43.7 52.8 43.7C56.3019 43.7 59.15 46.5482 59.15 50.05C59.15 53.5519 56.3019 56.4 52.8 56.4C49.2982 56.4 46.45 53.5519 46.45 50.05ZM48.1501 50.05C48.1501 52.6146 50.2353 54.7 52.8 54.7C55.3647 54.7 57.45 52.6146 57.45 50.05C57.45 47.4854 55.3647 45.4001 52.8 45.4001C50.2354 45.4001 48.1501 47.4853 48.1501 50.05Z" fill="#636363" stroke="white" stroke-width="0.5"/>
<path d="M65.6148 37.4901L65.6152 37.4907C65.7031 37.6267 65.75 37.7873 65.7499 37.9498V37.95V50.05C65.7499 50.5203 65.3702 50.9 64.8999 50.9H58.5499V49.2001H63.8H64.05V48.9501V38.2734V38.2L64.0103 38.1382L54.6096 23.5148L54.5358 23.4H54.3993H44H43.75V23.65V48.9498V49.1998H44H47.05V50.8999H42.9C42.4298 50.8999 42.05 50.5201 42.05 50.0499V22.5499C42.05 22.0807 42.4299 21.7 42.9 21.7H54.9999C55.289 21.7 55.5584 21.847 55.7148 22.0902L65.6148 37.4901Z" fill="#636363" stroke="white" stroke-width="0.5"/>
<path d="M48.4 27.8H48.15V28.05V35.4998V35.7498V35.75H48.4V35.9998H63.5501V37.6999H47.3001C46.8299 37.6999 46.4501 37.3201 46.4501 36.8499V26.9499C46.4501 26.4807 46.83 26.1 47.3001 26.1H56.9501V27.8H48.4Z" fill="#636363" stroke="white" stroke-width="0.5"/>
<path d="M1.95004 48.95V49.2H2.20004H9.65V50.9H1.09996C0.630708 50.9 0.25 50.5201 0.25 50.05V14.85C0.25 14.3809 0.63088 14 1.09996 14H42.9C43.3701 14 43.75 14.3808 43.75 14.85V50.05C43.75 50.5203 43.3702 50.9 42.9 50.9H21.15V49.2H41.8H42.05V48.95V15.95V15.7H41.8H2.20004H1.95004V15.95V48.95Z" fill="#636363" stroke="white" stroke-width="0.5"/>
<path d="M1.34998 46.5V44.8H7.44998V46.5H1.34998Z" fill="#636363" stroke="white" stroke-width="0.5"/>
<path d="M23.35 46.5V44.8H41.5501V46.5H23.35Z" fill="#636363" stroke="white" stroke-width="0.5"/>
<path d="M60.7499 46.5V44.8H64.6499V46.5H60.7499Z" fill="#636363" stroke="white" stroke-width="0.5"/>
<path d="M4.64996 20.1V18.4H42.65V20.1H4.64996Z" fill="#636363" stroke="white" stroke-width="0.5"/>
<path d="M14.55 50.9V49.2H16.25V50.9H14.55Z" fill="#636363" stroke="white" stroke-width="0.5"/>
<path d="M51.95 50.9V49.2H53.6501V50.9H51.95Z" fill="#636363" stroke="white" stroke-width="0.5"/>
<path d="M4.64996 11.3V9.59995H19.55V11.3H4.64996Z" fill="#636363" stroke="white" stroke-width="0.5"/>
<path d="M0.25 11.3V9.59995H1.95004V11.3H0.25Z" fill="#636363" stroke="white" stroke-width="0.5"/>
</svg>
