<svg height="72" viewBox="0 0 96 96" width="72" xmlns="http://www.w3.org/2000/svg"><path d="m67.72 16h-39.44l-14.5 19.09 34.22 44.91 34.19-44.91z" fill="#fff"/><g fill="#37414f"><path d="m48.51 80.4 34.49-45.31-15-19.71h-40l-15 19.71 35 46 .51-.67zm-15.13-44.68 12.95 41.08-31.33-41.08zm9.19-19.09h10.85a.6.6 0 0 0 0 .16l7.71 17.69h-26.33l7.74-17.69a.6.6 0 0 0 .04-.16zm18.7 19.09-13.27 42.23-13.3-42.23zm1.31 0h18.35l-31.26 41.09zm18.35-1.25h-18.4l-7.78-17.84h12.66zm-52.34-17.84h12.66l-7.82 17.84h-18.43z"/><path d="m86.06 58.35-5.69-5.73.89-.88 5.69 5.73zm9.94-22.66h-8v-1.25h8zm-14.81-17.24-.89-.88 5.76-5.79.89.88z"/><path d="m10 58.35-.88-.89 5.82-5.79.88.89zm-1.69-22.66h-8.18v-1.25h8.18zm6.69-17.18-5.88-5.85.88-.88 5.85 5.85z"/></g></svg>