<svg width="66" height="66" viewBox="0 0 66 66" fill="none" xmlns="http://www.w3.org/2000/svg">
<path d="M37.9361 17.7813L37.9361 17.7813C36.5317 19.517 34.731 20.4536 32.8711 20.4536C31.0112 20.4536 29.2104 19.5183 27.8061 17.7814L27.8061 17.7813C26.5219 16.1943 25.7889 14.1955 25.7889 12.3028C25.7889 8.51421 28.8143 5.64731 32.8711 5.64731C36.9278 5.64731 39.9533 8.51799 39.9533 12.3028C39.9533 14.1955 39.2203 16.1943 37.9361 17.7813ZM38.3263 12.3028C38.3263 9.37615 36.005 7.27426 32.8711 7.27426C29.737 7.27426 27.4159 9.38147 27.4159 12.3028C27.4159 13.7855 28.019 15.4068 28.9896 16.6584C29.9592 17.9089 31.3261 18.8267 32.8711 18.8267C34.143 18.8267 35.5073 18.0791 36.5448 16.9109C37.5869 15.7376 38.3263 14.1116 38.3263 12.3028Z" fill="#636363" stroke="white" stroke-width="0.5"/>
<path d="M25.5698 41.7038L26.3162 31.0664C26.326 30.9271 26.3083 30.7872 26.2641 30.6547C26.2198 30.5223 26.1499 30.3998 26.0584 30.2944C25.9668 30.1889 25.8553 30.1025 25.7304 30.0401M25.5698 41.7038L25.3205 41.6859L26.0668 31.0489L26.0668 31.0489C26.0743 30.9423 26.0608 30.8353 26.0269 30.7339C25.9931 30.6326 25.9396 30.5389 25.8696 30.4583C25.7995 30.3776 25.7143 30.3115 25.6187 30.2638L25.7304 30.0401M25.5698 41.7038C25.5506 41.9721 25.4305 42.2232 25.2337 42.4067C25.0369 42.5901 24.778 42.6922 24.5089 42.6925M25.5698 41.7038L25.3205 41.6863L25.3205 41.6861C25.3057 41.8914 25.2138 42.0835 25.0633 42.2238C24.9127 42.3641 24.7145 42.4423 24.5087 42.4425M25.7304 30.0401L25.6187 30.2638C25.5231 30.2161 25.4191 30.1877 25.3125 30.1801C25.2059 30.1726 25.0989 30.1862 24.9976 30.22C24.8963 30.2539 24.8026 30.3073 24.7219 30.3774C24.6413 30.4474 24.5752 30.5327 24.5275 30.6283C24.4797 30.7239 24.4513 30.8279 24.4438 30.9345L24.4433 30.9345L23.6974 41.5743L23.6974 41.5744C23.6899 41.681 23.7035 41.788 23.7373 41.8893C23.7711 41.9906 23.8246 42.0843 23.8947 42.165C23.9647 42.2457 24.05 42.3117 24.1455 42.3595C24.2387 42.4059 24.3398 42.4341 24.4436 42.4425H24.5087M25.7304 30.0401L24.5089 42.6925M24.5089 42.6925L24.5087 42.4425M24.5089 42.6925V42.4425H24.5087" fill="#636363" stroke="white" stroke-width="0.5"/>
<path d="M17.8137 41.8693C17.7846 41.7655 17.7765 41.657 17.7897 41.55L17.7898 41.5494L17.7903 41.545L17.7925 41.5276L17.8011 41.4595L17.834 41.1987C17.8623 40.9728 17.903 40.647 17.9522 40.2477C18.0508 39.449 18.1838 38.3558 18.3216 37.1779C18.5969 34.8255 18.8928 32.1247 18.9706 30.7623L18.9707 30.762C19.1066 28.3329 19.7694 26.1662 21.2304 24.4792L21.2304 24.4792C22.6257 22.8666 24.5605 21.8175 26.6731 21.5278C28.7597 21.2745 30.8579 21.1293 32.9595 21.0929C34.4971 21.0943 37.4418 21.2819 39.0555 21.5295L39.0556 21.5295C43.5499 22.2171 46.4498 25.9942 46.7497 30.7581C46.8328 32.1203 47.1563 34.8204 47.4577 37.1713C47.6086 38.3486 47.7543 39.4413 47.8623 40.2396C47.9163 40.6388 47.9609 40.9644 47.992 41.1903L48.028 41.4509L48.0374 41.519L48.0397 41.5353C48.0569 41.7559 47.9869 41.9745 47.8445 42.1441C47.7023 42.3134 47.4994 42.4201 47.2795 42.4415C47.0754 42.446 46.8763 42.3768 46.719 42.2463C46.5604 42.1147 46.4551 41.9298 46.4228 41.7262L46.4223 41.7225L46.4198 41.705L46.4103 41.6363L46.3738 41.3731C46.3422 41.145 46.297 40.816 46.2422 40.4127C46.1326 39.6059 45.9848 38.5018 45.8319 37.3123C45.5257 34.9297 45.2006 32.2164 45.1193 30.8575C45.0054 28.8679 44.4844 26.9843 43.2535 25.5707L43.2529 25.57C42.1041 24.2607 40.5295 23.3997 38.8074 23.139C37.2791 22.9047 34.4061 22.7211 32.9549 22.7211V22.7211L32.9505 22.7211C30.9281 22.7567 28.9089 22.8967 26.901 23.1406L26.9009 23.1405L26.8974 23.141C23.1654 23.6487 20.8106 26.8912 20.5945 30.8517L20.5945 30.8518C20.5209 32.2095 20.2248 34.9227 19.946 37.3046C19.8068 38.4938 19.6722 39.5977 19.5724 40.4043C19.5225 40.8076 19.4813 41.1365 19.4526 41.3646L19.4193 41.6278L19.4106 41.6964L19.4084 41.7139L19.4078 41.7183L19.4077 41.7194L19.4076 41.7197L19.6556 41.7514L19.4075 41.7198L19.4068 41.7275C19.3965 41.8348 19.365 41.9389 19.3141 42.0339C19.2632 42.1289 19.1939 42.2128 19.1103 42.2808L19.2681 42.4748L19.1103 42.2808C19.0267 42.3488 18.9305 42.3995 18.8271 42.43C18.7238 42.4605 18.6154 42.4701 18.5083 42.4584C18.4012 42.4466 18.2975 42.4137 18.2032 42.3615L18.0826 42.5794L18.2032 42.3615C18.1089 42.3094 18.0259 42.239 17.9591 42.1545C17.8922 42.07 17.8428 41.973 17.8137 41.8693Z" fill="#636363" stroke="white" stroke-width="0.5"/>
<path d="M39.6431 31.0489L39.6431 31.0489L39.643 31.0473C39.6348 30.9403 39.6479 30.8327 39.6815 30.7307C39.7151 30.6288 39.7685 30.5345 39.8388 30.4532C39.909 30.372 39.9946 30.3055 40.0906 30.2575C40.1865 30.2096 40.291 30.1811 40.398 30.1737C40.505 30.1667 40.6123 30.1808 40.7138 30.2152C40.8154 30.2497 40.9092 30.3038 40.9899 30.3746C41.0705 30.4453 41.1364 30.5313 41.1838 30.6275C41.2312 30.7238 41.2592 30.8285 41.2661 30.9355L41.2661 30.9355L41.2662 30.937L42.0138 41.5831C42.0138 41.5831 42.0138 41.5831 42.0138 41.5831C42.0287 41.7984 41.9577 42.0107 41.8162 42.1736L42.005 42.3376L41.8162 42.1736C41.6766 42.3345 41.4796 42.4341 41.2675 42.4515H41.2013C40.9955 42.4512 40.7974 42.373 40.647 42.2324C40.4966 42.0919 40.405 41.8996 40.3908 41.6942L40.3908 41.694L39.6431 31.0489Z" fill="#636363" stroke="white" stroke-width="0.5"/>
<path d="M32.6185 55.2374L32.6185 55.2374C32.0029 55.5509 30.7774 56.1946 29.7042 56.7607C29.1679 57.0436 28.6702 57.3068 28.3066 57.4993L27.8736 57.7287L27.7549 57.7916L27.724 57.808L27.7161 57.8122L27.7141 57.8132L27.7136 57.8135L27.7135 57.8136L27.5963 57.5927L27.7134 57.8136L27.2639 58.0521L27.3498 57.5505L28.287 52.0836L28.287 52.0836C28.3093 51.9536 28.2997 51.8202 28.259 51.6948C28.2182 51.5694 28.1477 51.4558 28.0533 51.3638L24.0819 47.4967L23.7187 47.1431L24.2203 47.0702L29.709 46.2723C29.8395 46.2533 29.9634 46.2028 30.0701 46.1254C30.1768 46.0479 30.2631 45.9457 30.3215 45.8275C30.3216 45.8275 30.3216 45.8275 30.3216 45.8275L32.7706 40.8534L32.9948 40.3979L33.2191 40.8534L35.6681 45.8275C35.6682 45.8275 35.6682 45.8276 35.6682 45.8277C35.7267 45.9458 35.813 46.0479 35.9196 46.1254C36.0263 46.2028 36.1502 46.2533 36.2807 46.2723L41.7694 47.0702L42.271 47.1431L41.9078 47.4967L37.9364 51.3638L32.6185 55.2374ZM32.6185 55.2374L32.6238 55.2346C32.7378 55.1731 32.8653 55.1409 32.9948 55.1409C33.1244 55.1409 33.2519 55.1731 33.3659 55.2346L33.3659 55.2347L33.3716 55.2376C33.9869 55.5497 35.2121 56.1932 36.2855 56.7597C36.8217 57.0427 37.3194 57.3062 37.683 57.4989L38.116 57.7285L38.2346 57.7915L38.2656 57.8079L38.2735 57.8121L38.2755 57.8132L38.276 57.8134L38.2761 57.8135L38.3934 57.5927M32.6185 55.2374L38.3934 57.5927M38.3934 57.5927L38.2762 57.8135L38.7259 58.0524L38.6398 57.5505L37.7027 52.0836L37.7027 52.0836C37.6804 51.9536 37.69 51.8202 37.7307 51.6948L37.493 51.6176M38.3934 57.5927L37.493 51.6176M37.493 51.6176L37.7307 51.6948C37.7714 51.5695 37.8419 51.456 37.9362 51.3639L37.493 51.6176ZM39.4822 52.1415L39.3882 52.2331L39.4103 52.3626L40.613 59.4008C40.6329 59.5176 40.6271 59.6374 40.5961 59.7517C40.565 59.8661 40.5093 59.9723 40.4329 60.0629C40.3566 60.1535 40.2614 60.2264 40.154 60.2765C40.0467 60.3265 39.9298 60.3525 39.8114 60.3527C39.6793 60.3522 39.5493 60.32 39.4324 60.2588L33.1164 56.9358L33 56.8746L32.8836 56.9358L26.5672 60.259L26.5663 60.2595C26.4318 60.331 26.28 60.3633 26.1281 60.3527C25.9761 60.3422 25.8302 60.2892 25.7069 60.1998C25.5837 60.1104 25.4879 59.9882 25.4307 59.8471C25.3734 59.706 25.3569 59.5517 25.383 59.4016L25.3831 59.401L26.5897 52.3666L26.6119 52.2371L26.5178 52.1453L21.4028 47.1593C21.4028 47.1593 21.4028 47.1593 21.4028 47.1592C21.2942 47.0533 21.2174 46.9191 21.181 46.7718C21.1447 46.6245 21.1502 46.4699 21.1971 46.3256C21.244 46.1813 21.3303 46.0529 21.4463 45.9551C21.5623 45.8573 21.7033 45.7938 21.8534 45.7719L21.8535 45.7719L28.9214 44.7407L29.0514 44.7217L29.1095 44.6039L32.2703 38.1999L32.2703 38.1998C32.3375 38.0635 32.4414 37.9488 32.5704 37.8686C32.6993 37.7884 32.8481 37.7459 33 37.7459C33.1519 37.7459 33.3007 37.7884 33.4297 37.8686C33.5586 37.9488 33.6625 38.0635 33.7297 38.1998L33.7298 38.1999L36.8905 44.6001L36.9487 44.7179L37.0786 44.7368L44.1465 45.7681L44.1466 45.7681C44.2967 45.79 44.4378 45.8534 44.5537 45.9512C44.6697 46.0491 44.756 46.1774 44.8029 46.3217C44.8498 46.4661 44.8554 46.6206 44.819 46.7679L45.0617 46.8278L44.819 46.7679C44.7826 46.9152 44.7058 47.0494 44.5972 47.1554C44.5972 47.1554 44.5972 47.1554 44.5972 47.1554L39.4822 52.1415Z" fill="#636363" stroke="white" stroke-width="0.5"/>
<path d="M53.3995 56.1314L53.3995 56.1313C52.9969 56.3336 52.1966 56.7541 51.4946 57.1254C51.1441 57.3107 50.8189 57.4834 50.5813 57.6097L50.2985 57.7602L50.221 57.8015L50.2007 57.8122L50.1956 57.815L50.1943 57.8157L50.194 57.8159L50.1939 57.8159L50.0762 57.5953L50.1939 57.8159L49.7435 58.0561L49.8298 57.553L50.4434 53.9785C50.4434 53.9785 50.4434 53.9785 50.4434 53.9785C50.4657 53.8485 50.4561 53.7151 50.4154 53.5898C50.3747 53.4644 50.3041 53.3507 50.2097 53.2587L47.6123 50.727L47.2488 50.3728L47.7513 50.3006L51.3398 49.785L53.3995 56.1314ZM53.3995 56.1314L53.4058 56.128C53.5223 56.0653 53.6525 56.0325 53.7849 56.0325C53.9172 56.0325 54.0474 56.0653 54.1639 56.128L54.1638 56.1281L54.1702 56.1313C54.5728 56.3336 55.3727 56.7541 56.0745 57.1254C56.4248 57.3107 56.7498 57.4834 56.9873 57.6097L57.27 57.7602L57.3474 57.8014L57.3676 57.8122L57.3728 57.815L57.3741 57.8157L57.3744 57.8158L57.3745 57.8159L57.4922 57.5953M53.3995 56.1314L57.4922 57.5953M57.4922 57.5953L57.3745 57.8159L57.8258 58.0567L57.7385 57.5527L57.1198 53.9782C57.1198 53.9782 57.1198 53.9781 57.1198 53.9781C57.0974 53.8483 57.1069 53.715 57.1476 53.5896C57.1883 53.4643 57.2589 53.3508 57.3533 53.2589L57.3535 53.2587L59.9497 50.727L60.3129 50.3728L59.8107 50.3006L56.2238 49.785C56.2237 49.785 56.2236 49.785 56.2235 49.785C56.0928 49.7659 55.9687 49.7153 55.8619 49.6377C55.755 49.56 55.6685 49.4575 55.61 49.339L54.0052 46.0881L53.781 45.634L53.5568 46.0881L51.9519 49.3391L51.9517 49.3396M57.4922 57.5953L51.9517 49.3396M51.9517 49.3396C51.8936 49.458 51.8075 49.5604 51.7009 49.6381C51.5943 49.7156 51.4705 49.766 51.34 49.7849L51.9517 49.3396ZM62.1781 49.001L62.196 49.0036H62.196C62.3399 49.0277 62.4748 49.09 62.5864 49.1842C62.7024 49.2821 62.7887 49.4104 62.8356 49.5547C62.8825 49.699 62.8881 49.8536 62.8517 50.0009C62.8153 50.1482 62.7385 50.2824 62.6299 50.3884L58.8916 54.0338L58.7975 54.1256L58.8197 54.2551L59.7027 59.4008C59.7227 59.5176 59.7169 59.6374 59.6858 59.7517C59.6547 59.8661 59.599 59.9723 59.5227 60.0629C59.4463 60.1535 59.3511 60.2264 59.2437 60.2765L59.3493 60.5031L59.2437 60.2765C59.1364 60.3265 59.0195 60.3525 58.9011 60.3527C58.7692 60.3522 58.6393 60.32 58.5224 60.2589C58.5223 60.2588 58.5222 60.2588 58.5221 60.2588L53.8999 57.8291L53.7835 57.7679L53.6672 57.8291L49.0459 60.259L49.0449 60.2595C48.9105 60.331 48.7586 60.3633 48.6067 60.3527C48.4548 60.3422 48.3089 60.2892 48.1856 60.1998C48.0623 60.1104 47.9666 59.9882 47.9093 59.8471C47.8521 59.706 47.8356 59.5517 47.8617 59.4016L47.8618 59.401L48.7448 54.2551L48.767 54.1256L48.6729 54.0338L44.9347 50.3884C44.826 50.2824 44.7492 50.1482 44.7128 50.0009C44.6765 49.8536 44.6821 49.699 44.7289 49.5547C44.7758 49.4104 44.8621 49.2821 44.9781 49.1842C45.0941 49.0864 45.2351 49.0229 45.3852 49.001C45.3852 49.001 45.3853 49.001 45.3853 49.001L50.5531 48.2495L50.6831 48.2306L50.7413 48.1128L53.0525 43.4309L53.0527 43.4305C53.1197 43.2943 53.2235 43.1796 53.3523 43.0994C53.4811 43.0191 53.6299 42.9766 53.7816 42.9766C53.9334 42.9766 54.0821 43.0191 54.211 43.0994C54.3398 43.1796 54.4436 43.2943 54.5105 43.4305L54.5107 43.4309L56.822 48.1128L56.8802 48.2306L57.0102 48.2495L62.1781 49.001Z" fill="#636363" stroke="white" stroke-width="0.5"/>
<path d="M11.8539 56.1255L11.8466 56.1293L8.63041 57.8167L8.18244 58.0517L8.26785 57.5531L8.88015 53.9785L8.88022 53.9782C8.90266 53.8483 8.89313 53.715 8.85244 53.5896C8.81175 53.4643 8.74113 53.3508 8.6467 53.2589L8.64652 53.2587L6.05034 50.727L5.68707 50.3728L6.18932 50.3006L9.77624 49.785C9.77634 49.785 9.77645 49.785 9.77655 49.785C9.90721 49.7659 10.0313 49.7153 10.1381 49.6377C10.245 49.56 10.3314 49.4575 10.39 49.3391C10.39 49.3391 10.39 49.339 10.39 49.339C10.39 49.339 10.39 49.339 10.39 49.339L11.9949 46.0881L12.219 45.634L12.4432 46.0881L14.0481 49.3391L14.0483 49.3396C14.1064 49.458 14.1925 49.5604 14.2991 49.6381C14.4057 49.7156 14.5295 49.766 14.66 49.7849L11.8539 56.1255ZM11.8539 56.1255L11.861 56.1212C11.9695 56.0548 12.0943 56.0196 12.2216 56.0196C12.3489 56.0196 12.4737 56.0548 12.5823 56.1212L12.5892 56.1254L12.5964 56.1292L15.8075 57.8166L16.2559 58.0522L16.1702 57.553L15.5566 53.9785C15.5566 53.9785 15.5566 53.9785 15.5566 53.9785C15.5343 53.8485 15.5439 53.7151 15.5846 53.5898C15.6254 53.4644 15.6959 53.3507 15.7903 53.2587L18.3877 50.727L18.7512 50.3728L18.2487 50.3006L14.6602 49.785L11.8539 56.1255ZM20.6148 49.001L20.6327 49.0036H20.6392C20.7831 49.0277 20.918 49.09 21.0296 49.1842C21.1456 49.2821 21.2319 49.4104 21.2788 49.5547C21.3257 49.699 21.3313 49.8536 21.2949 50.0009C21.2585 50.1482 21.1817 50.2824 21.0731 50.3884L17.3348 54.0338L17.2407 54.1256L17.2629 54.2551L18.1459 59.4008C18.1659 59.5176 18.1601 59.6374 18.129 59.7517C18.0979 59.8661 18.0422 59.9723 17.9659 60.0629C17.8895 60.1535 17.7943 60.2264 17.6869 60.2765L17.7925 60.5031L17.6869 60.2765C17.5796 60.3265 17.4627 60.3525 17.3443 60.3527C17.2123 60.3522 17.0824 60.32 16.9654 60.2588C16.9654 60.2588 16.9653 60.2588 16.9653 60.2588L12.3444 57.8291L12.2281 57.7679L12.1117 57.8291L7.48915 60.2589L7.48813 60.2595C7.35366 60.331 7.20184 60.3633 7.04992 60.3527C6.89801 60.3422 6.75211 60.2892 6.62882 60.1998C6.50554 60.1104 6.40981 59.9882 6.35255 59.8471C6.29528 59.706 6.27877 59.5517 6.30489 59.4016L6.30505 59.4007L7.18161 54.2548L7.20364 54.1254L7.1097 54.0338L3.37142 50.3884C3.37142 50.3884 3.37142 50.3884 3.37142 50.3884C3.26279 50.2824 3.18595 50.1482 3.1496 50.0009C3.11325 49.8536 3.11882 49.699 3.1657 49.5547C3.21257 49.4104 3.29888 49.2821 3.41486 49.1842C3.53083 49.0864 3.67183 49.0229 3.82196 49.001C3.82198 49.001 3.82201 49.001 3.82204 49.001L8.98981 48.2495L9.11984 48.2306L9.178 48.1128L11.4893 43.4309L11.4895 43.4305C11.5564 43.2943 11.6602 43.1796 11.789 43.0994C11.9179 43.0191 12.0666 42.9766 12.2184 42.9766C12.3702 42.9766 12.5189 43.0191 12.6477 43.0994C12.7766 43.1796 12.8803 43.2943 12.9473 43.4305L12.9475 43.4309L15.2588 48.1128L15.3169 48.2306L15.447 48.2495L20.6148 49.001Z" fill="#636363" stroke="white" stroke-width="0.5"/>
</svg>
