<svg width="66" height="66" viewBox="0 0 66 66" fill="none" xmlns="http://www.w3.org/2000/svg">
<g clip-path="url(#clip0_9_188)">
<path d="M45.3906 13.2341V13.4347L45.5865 13.4781C50.2114 14.5042 54.6065 16.8116 58.1977 20.4027C62.3998 24.605 65.0371 30.1705 65.624 36.0734C66.2026 41.8948 64.7763 47.7878 61.6087 52.6661L61.8183 52.8022L61.6087 52.6661C61.2962 53.1473 60.6529 53.2842 60.1713 52.9717C59.6901 52.6592 59.5533 52.0156 59.8658 51.5343C65.9172 42.2153 64.5973 29.7418 56.7281 21.8724C47.4827 12.6273 32.4403 12.6273 23.1952 21.8724C13.95 31.1178 13.95 46.1602 23.1952 55.4054C31.0748 63.285 43.5591 64.5978 52.8826 58.5264C53.3635 58.2132 54.0072 58.3492 54.3204 58.8301C54.6335 59.311 54.4976 59.9547 54.0166 60.2679C49.8438 62.9853 44.9249 64.4274 39.9425 64.4274C39.0996 64.4274 38.2556 64.3861 37.4122 64.3029C31.5032 63.7191 25.9319 61.0811 21.7257 56.8749C19.0626 54.2118 17.1055 51.1066 15.8531 47.7938L15.7921 47.6322H15.6193H6.44541C5.87164 47.6322 5.40633 47.167 5.40633 46.5931C5.40633 46.0192 5.87164 45.554 6.44541 45.554H14.7966H15.1209L15.0384 45.2404C14.6146 43.6296 14.3489 41.9856 14.2412 40.3329L14.2259 40.0992H13.9917H8.25013C7.67635 40.0992 7.21105 39.6339 7.21105 39.0601C7.21105 38.4862 7.67635 38.021 8.25013 38.021H13.9506H14.1924L14.2004 37.7793C14.255 36.1307 14.4662 34.4869 14.8341 32.8717L14.9037 32.5661H14.5904H1.28908C0.715306 32.5661 0.25 32.1009 0.25 31.5271C0.25 30.9532 0.715306 30.488 1.28908 30.488H15.3188H15.498L15.5556 30.3183C16.1301 28.6241 16.8848 26.9784 17.8208 25.4115L18.0467 25.0333H17.6062H10.0764C9.5026 25.0333 9.03729 24.5681 9.03729 23.9942C9.03729 23.4203 9.5026 22.9551 10.0764 22.9551H19.2625C19.2845 22.9551 19.3075 22.9567 19.3413 22.9593L19.4755 22.9694L19.5579 22.863C20.2193 22.0087 20.942 21.1866 21.7257 20.4028C25.3067 16.8219 29.6872 14.5176 34.298 13.4872L34.4934 13.4435V13.2432V9.95877V9.76336L34.3038 9.71617C32.5051 9.26853 31.1685 7.63986 31.1685 5.7057C31.1685 3.427 33.0227 1.57282 35.3014 1.57282H44.5828C46.8615 1.57282 48.7157 3.427 48.7157 5.7057C48.7157 7.63999 47.3791 9.26865 45.5803 9.71617L45.3906 9.76335V9.95877V13.2341ZM36.5716 12.8V13.082L36.8515 13.0482C38.9037 12.8011 40.9803 12.7995 43.0329 13.0437L43.3124 13.0769V12.7954V10.0887V9.83871H43.0624H36.8216H36.5716V10.0887V12.8ZM35.3014 3.65112C34.1682 3.65112 33.2467 4.57259 33.2467 5.70583C33.2467 6.83893 34.1681 7.76055 35.3014 7.76055H35.5325H44.3515H44.5828C45.716 7.76055 46.6375 6.83908 46.6375 5.70583C46.6375 4.57259 45.716 3.65112 44.5828 3.65112H35.3014Z" fill="#636363" stroke="white" stroke-width="0.5"/>
<path d="M56.7285 55.4054L56.729 55.4049C56.9219 55.2119 57.1896 55.1004 57.4634 55.1004C57.7354 55.1004 58.0036 55.2117 58.1983 55.4052C58.3911 55.5981 58.5025 55.8669 58.5025 56.1395C58.5025 56.4121 58.3909 56.6812 58.198 56.8741C58.0039 57.0682 57.7362 57.1786 57.4634 57.1786C57.1892 57.1786 56.9217 57.068 56.7295 56.8746L56.7285 56.8736C56.5351 56.6812 56.4243 56.4126 56.4243 56.1395C56.4243 55.8664 56.5351 55.5978 56.7285 55.4054Z" fill="#636363" stroke="white" stroke-width="0.5"/>
<path d="M20.2143 38.6387C20.2143 27.7501 29.0732 18.8913 39.9617 18.8913C50.8502 18.8913 59.7091 27.7501 59.7091 38.6387C59.7091 49.5273 50.8502 58.3861 39.9617 58.3861C29.0732 58.3861 20.2143 49.5273 20.2143 38.6387ZM22.2925 38.6387C22.2925 48.3817 30.2186 56.3079 39.9617 56.3079C49.7049 56.3079 57.631 48.3817 57.631 38.6387C57.631 28.8957 49.7049 20.9695 39.9617 20.9695C30.2186 20.9695 22.2925 28.8957 22.2925 38.6387Z" fill="#636363" stroke="white" stroke-width="0.5"/>
<path d="M41.6203 35.2703L41.781 35.3498L41.9079 35.2229L48.2926 28.8383C48.2927 28.8383 48.2927 28.8383 48.2927 28.8382C48.6987 28.4324 49.3564 28.4325 49.7621 28.8382C50.1679 29.244 50.1679 29.902 49.7621 30.3077L49.5748 30.495L43.3775 36.6924L43.2506 36.8192L43.3301 36.98C43.5776 37.4805 43.7174 38.0433 43.7174 38.6386C43.7174 40.7092 42.0325 42.3943 39.9617 42.3943C37.8909 42.3943 36.206 40.7092 36.206 38.6386C36.206 38.0433 36.3456 37.4805 36.5932 36.98L36.6728 36.8193L36.5459 36.6924L33.6884 33.8349C33.2827 33.4292 33.2827 32.7712 33.6884 32.3655C34.0944 31.9597 34.7521 31.9597 35.158 32.3654C35.158 32.3654 35.158 32.3654 35.158 32.3655L38.0155 35.2229L38.1423 35.3498L38.3031 35.2703C38.8036 35.0228 39.3663 34.883 39.9617 34.883C40.557 34.883 41.1198 35.0228 41.6203 35.2703ZM38.2842 38.6387C38.2842 39.5639 39.0365 40.3162 39.9617 40.3162C40.8869 40.3162 41.6392 39.5639 41.6392 38.6387C41.6392 37.7135 40.8869 36.9612 39.9617 36.9612C39.0365 36.9612 38.2842 37.7135 38.2842 38.6387Z" fill="#636363" stroke="white" stroke-width="0.5"/>
<path d="M52.5501 37.6153H53.7444C54.3182 37.6153 54.7835 38.0805 54.7835 38.6544C54.7835 39.2283 54.3182 39.6935 53.7444 39.6935H52.5501C51.9763 39.6935 51.511 39.2283 51.511 38.6544C51.511 38.0805 51.9763 37.6153 52.5501 37.6153Z" fill="#636363" stroke="white" stroke-width="0.5"/>
<path d="M26.1789 37.5839H27.3731C27.9469 37.5839 28.4122 38.0491 28.4122 38.6229C28.4122 39.1968 27.9469 39.662 27.3731 39.662H26.1789C25.6052 39.662 25.1399 39.1968 25.1399 38.6229C25.1399 38.0491 25.6052 37.5839 26.1789 37.5839Z" fill="#636363" stroke="white" stroke-width="0.5"/>
<path d="M41.0164 26.0501C41.0164 26.624 40.5512 27.0892 39.9774 27.0892C39.4036 27.0892 38.9383 26.624 38.9383 26.0501V24.8559C38.9383 24.2821 39.4036 23.8169 39.9774 23.8169C40.5512 23.8169 41.0164 24.2821 41.0164 24.8559V26.0501Z" fill="#636363" stroke="white" stroke-width="0.5"/>
<path d="M38.9069 51.2272C38.9069 50.6534 39.3722 50.1882 39.946 50.1882C40.5197 50.1882 40.985 50.6534 40.985 51.2272V52.4214C40.985 52.9953 40.5197 53.4605 39.946 53.4605C39.3722 53.4605 38.9069 52.9953 38.9069 52.4214V51.2272Z" fill="#636363" stroke="white" stroke-width="0.5"/>
<path d="M2.02352 47.3272L2.02348 47.3272C1.83069 47.5201 1.5617 47.6316 1.28906 47.6316C1.01647 47.6316 0.747546 47.5201 0.554425 47.3271C0.361342 47.1341 0.25 46.8664 0.25 46.5926C0.25 46.3199 0.361527 46.0509 0.554472 45.858C0.747417 45.665 1.01643 45.5535 1.28906 45.5535C1.5617 45.5535 1.83069 45.665 2.02348 45.8579L2.02357 45.858C2.2166 46.051 2.32812 46.3199 2.32812 46.5926C2.32812 46.8651 2.21651 47.1342 2.02352 47.3272Z" fill="#636363" stroke="white" stroke-width="0.5"/>
</g>
<defs>
<clipPath id="clip0_9_188">
<rect width="66" height="66" fill="white"/>
</clipPath>
</defs>
</svg>
